<?xml version="1.0" encoding="UTF-8" standalone="no"?>
<!-- Created with Inkscape (http://www.inkscape.org/) -->

<svg
   xmlns:dc="http://purl.org/dc/elements/1.1/"
   xmlns:cc="http://creativecommons.org/ns#"
   xmlns:rdf="http://www.w3.org/1999/02/22-rdf-syntax-ns#"
   xmlns:svg="http://www.w3.org/2000/svg"
   xmlns="http://www.w3.org/2000/svg"
   xmlns:sodipodi="http://sodipodi.sourceforge.net/DTD/sodipodi-0.dtd"
   xmlns:inkscape="http://www.inkscape.org/namespaces/inkscape"
   version="1.1"
   id="svg3753"
   width="460.79999"
   height="460.79999"
   viewBox="0 0 460.79999 460.79999"
   sodipodi:docname="wee-ninja-z.svg"
   enable-background="new"
   inkscape:version="0.92.2 5c3e80d, 2017-08-06">
  <metadata
     id="metadata3759">
    <rdf:RDF>
      <cc:Work
         rdf:about="">
        <dc:format>image/svg+xml</dc:format>
        <dc:type
           rdf:resource="http://purl.org/dc/dcmitype/StillImage" />
        <dc:title></dc:title>
      </cc:Work>
    </rdf:RDF>
  </metadata>
  <defs
     id="defs3757" />
  <sodipodi:namedview
     pagecolor="#ffffff"
     bordercolor="#666666"
     borderopacity="1"
     objecttolerance="10"
     gridtolerance="10"
     guidetolerance="10"
     inkscape:pageopacity="0"
     inkscape:pageshadow="2"
     inkscape:window-width="1470"
     inkscape:window-height="999"
     id="namedview3755"
     showgrid="false"
     inkscape:pagecheckerboard="true"
     inkscape:zoom="1.0978931"
     inkscape:cx="349.33765"
     inkscape:cy="209.55007"
     inkscape:window-x="0"
     inkscape:window-y="0"
     inkscape:window-maximized="0"
     inkscape:current-layer="svg3753" />
  <path
     sodipodi:nodetypes="ccscssssscsssssscssssccscssscsccccc"
     style="display:inline;fill:#ffffff;stroke-width:0.95999998"
     d="m 174.13409,404.03237 c -18.5221,-4.18428 -33.88078,-19.08613 -37.37543,-36.26373 -0.62747,-3.08422 -1.11266,-25.4954 -1.26198,-58.2907 l -0.24259,-53.28 -19.68,-0.55475 c -16.553264,-0.46661 -20.671413,-0.88224 -25.920007,-2.61601 -16.479649,-5.44374 -25.189279,-17.43983 -26.546736,-36.5638 -1.82956,-25.77497 9.74669,-42.92763 32.180908,-47.68279 4.077937,-0.86436 12.490035,-1.35529 23.405835,-1.36598 l 17.04,-0.0167 v -6.3568 c 0,-7.8167 2.3402,-24.15895 4.93224,-34.4432 5.15171,-20.44004 15.80915,-38.201921 29.4148,-49.023221 7.4958,-5.961816 22.98416,-13.390726 32.85296,-15.757762 26.4486,-6.343707 60.87323,-4.150786 81.92809,5.218989 31.38267,13.965833 48.32753,43.931824 52.00169,91.961994 l 0.64257,8.4 h 16.56026 c 13.3569,0 17.99653,0.36734 23.98536,1.89902 21.59361,5.52271 31.50369,18.75143 31.65916,42.26098 0.10093,15.26346 -3.37889,25.05927 -11.65041,32.79631 -9.66701,9.04236 -18.19602,11.30607 -43.08051,11.43417 l -17.64622,0.0908 v 53.47765 c 0,58.01293 -0.0738,58.96202 -5.40741,69.49716 -3.53129,6.97521 -14.80708,17.96596 -21.8015,21.25041 -16.23839,7.62523 -33.84459,6.35245 -48.64234,-3.51645 -11.89842,-7.93527 -20.4892,-22.85122 -21.74975,-37.76349 -0.48994,-5.79596 -0.92553,-7.16972 -2.4242,-7.64538 -3.08665,-0.97967 -4.31139,1.15126 -4.86442,8.46368 -2.22218,29.38241 -30.25976,50.72639 -58.31037,44.38953 z M 339.25408,294.18171 v 2e-5 z"
     id="path3808"
     inkscape:connector-curvature="0"
     inkscape:label="white" />
  <path
     inkscape:connector-curvature="0"
     id="path3795"
     d="m 174.13409,404.03237 c -18.5221,-4.18428 -33.88078,-19.08613 -37.37543,-36.26373 -0.62747,-3.08422 -1.11266,-25.4954 -1.26198,-58.2907 l -0.24259,-53.28 -19.68,-0.55475 c -16.553264,-0.46661 -20.671413,-0.88224 -25.920007,-2.61601 -16.479649,-5.44374 -25.189279,-17.43983 -26.546736,-36.5638 -1.82956,-25.77497 9.74669,-42.92763 32.180908,-47.68279 4.077937,-0.86436 12.490035,-1.35529 23.405835,-1.36598 l 17.04,-0.0167 v -6.3568 c 0,-7.8167 2.3402,-24.15895 4.93224,-34.4432 5.15171,-20.44004 15.80915,-38.201921 29.4148,-49.023221 7.4958,-5.961816 22.98416,-13.390726 32.85296,-15.757762 26.4486,-6.343707 60.87323,-4.150786 81.92809,5.218989 31.38267,13.965833 48.32753,43.931824 52.00169,91.961994 l 0.64257,8.4 h 16.56026 c 13.3569,0 17.99653,0.36734 23.98536,1.89902 21.59361,5.52271 31.50369,18.75143 31.65916,42.26098 0.10093,15.26346 -3.37889,25.05927 -11.65041,32.79631 -9.66701,9.04236 -18.19602,11.30607 -43.08051,11.43417 l -17.64622,0.0908 v 53.47765 c 0,58.01293 -0.0738,58.96202 -5.40741,69.49716 -3.53129,6.97521 -14.80708,17.96596 -21.8015,21.25041 -16.23839,7.62523 -33.84459,6.35245 -48.64234,-3.51645 -11.89842,-7.93527 -20.4892,-22.85122 -21.74975,-37.76349 -0.48994,-5.79596 -0.92553,-7.16972 -2.4242,-7.64538 -3.08665,-0.97967 -4.31139,1.15126 -4.86442,8.46368 -2.22218,29.38241 -30.25976,50.72639 -58.31037,44.38953 z m 10.399,-258.10742 c 0.44349,-2.30284 -1.01516,-3.71218 -3.03847,-2.93576 -1.61665,0.62036 -2.16882,3.36048 -0.92734,4.60194 1.18459,1.1846 3.61331,0.16421 3.96581,-1.66618 z m 90.81241,0.0285 c 0.78074,-1.25256 0.6816,-1.87138 -0.41142,-2.56816 -0.792,-0.50489 -1.77755,-0.92459 -2.19012,-0.93268 -1.14461,-0.0225 -1.92762,2.67681 -1.27208,4.38514 0.69378,1.80796 2.44463,1.40826 3.87362,-0.8843 z m -83.27147,-3.30977 c 0.62696,-0.39867 1.59663,-1.92603 2.1548,-3.39413 0.87599,-2.30402 0.69445,-2.98971 -1.32663,-5.01079 -3.60193,-3.60192 -8.20811,-1.38584 -8.20811,3.94901 0,4.19981 3.99202,6.61014 7.37994,4.45592 z m 91.91148,-0.75434 c 1.88795,-1.88794 1.96089,-6.52095 0.12663,-8.04324 -2.25968,-1.87537 -6.55556,-0.81803 -8.13067,2.0012 -1.26571,2.26544 -1.24152,2.79134 0.23185,5.04 1.87923,2.86806 5.44628,3.32795 7.77219,1.00204 z m 55.26857,152.29237 v 2e-5 z"
     style="display:inline;fill:#fad9aa;stroke-width:0.95999998"
     sodipodi:nodetypes="ccscssssscsssssscssssccscssscsccccccscccscccscccccccccc"
     inkscape:label="skin" />
  <path
     inkscape:connector-curvature="0"
     id="path3791"
     d="m 174.13409,404.01474 c -17.44122,-3.89081 -30.39449,-15.69157 -36.8218,-33.54557 -0.68818,-1.91164 -1.22145,-22.02926 -1.55311,-58.59123 l -0.50509,-55.68 -19.68,-0.531 C 98.5138,255.20661 95.063441,254.84795 89.654083,252.97259 73.126683,247.24276 64.71537,235.86841 63.202434,217.20288 61.533622,196.61425 68.808341,180.36436 82.916335,173.167 c 8.496467,-4.33457 17.335255,-5.76905 35.546985,-5.76905 h 16.98211 l 0.65241,-10.8 c 2.99868,-49.6397 24.53835,-82.005803 62.03625,-93.217359 13.50823,-4.038849 19.65332,-4.803153 38.39999,-4.776058 14.59701,0.0211 19.55099,0.404325 27.81627,2.151792 17.33203,3.664382 31.12146,10.410518 41.91167,20.504226 17.41948,16.295062 26.74524,38.784659 30.08807,72.559109 0.5412,5.46795 0.98399,10.71488 0.98399,11.65983 0,1.5784 1.5419,1.75289 18.96,2.1457 16.03715,0.36167 19.93713,0.7463 25.29845,2.49502 17.71849,5.77931 26.99938,18.52884 28.06769,38.55774 0.75284,14.11433 -2.78887,26.22577 -9.93674,33.9803 -9.27465,10.06182 -19.55468,13.05969 -44.78296,13.05969 h -17.60644 v 53.07831 c 0,57.34648 -0.0615,58.15211 -5.3188,69.66364 -3.13972,6.87482 -14.49448,18.12359 -21.68084,21.47847 -8.08839,3.77597 -12.95008,4.84186 -21.96036,4.81463 -18.17066,-0.0549 -34.06567,-9.82718 -42.7033,-26.25403 -3.64594,-6.93377 -6.22033,-16.30804 -6.24251,-22.73114 -0.0101,-2.91045 -0.47259,-4.28604 -1.58467,-4.71279 -3.16167,-1.21324 -4.64407,1.06423 -5.28375,8.11775 -1.16686,12.86648 -6.48621,24.06079 -15.47124,32.55845 -11.29515,10.68248 -28.3145,15.54943 -42.95452,12.28351 z M 294.53761,178.17959 c 12.08643,-5.57391 18.7739,-15.46689 19.553,-28.92531 0.72757,-12.56831 -3.07243,-22.2556 -12.35063,-31.48529 -6.02484,-5.99335 -12.08447,-9.38576 -20.16906,-11.29141 -9.08376,-2.14117 -80.43034,-2.1486 -88.75514,-0.01 -17.64587,4.53475 -31.00867,18.39275 -34.11388,35.37811 -2.46993,13.51049 3.39094,27.5495 14.12797,33.84181 8.6869,5.09087 8.38137,5.06791 64.66421,4.86153 52.16436,-0.19128 52.33406,-0.19833 57.04353,-2.3702 z m -111.03824,-17.8732 c -11.8911,-6.44985 -12.09799,-23.27771 -0.37409,-30.42659 4.17426,-2.54533 11.30635,-2.42695 16.1,0.26723 5.14472,2.8915 9.01814,10.64027 8.12157,16.24715 -1.45523,9.10047 -7.08344,14.44753 -15.78662,14.99806 -3.56645,0.2256 -6.32914,-0.14655 -8.06086,-1.08585 z m 0.71472,-14.98844 c 0,-2.73661 -3.03003,-3.89694 -3.94561,-1.51096 -0.87341,2.27606 0.3624,4.57473 2.26271,4.20876 1.06274,-0.20466 1.6829,-1.19882 1.6829,-2.6978 z m 8.33396,-3.12 c 2.68113,-2.14359 2.80177,-5.51154 0.28747,-8.02583 -1.26179,-1.2618 -2.76543,-2.29417 -3.34143,-2.29417 -2.2663,0 -5.6457,4.546 -5.09525,6.85417 0.62477,2.61979 2.85911,4.66583 5.09525,4.66583 0.85417,0 2.22844,-0.54 3.05396,-1.2 z m 81.5693,17.86535 c -4.43534,-2.25973 -8.01032,-7.99888 -8.56255,-13.74604 -1.62095,-16.86954 19.68135,-25.09008 29.7563,-11.48293 5.06316,6.83827 3.48329,17.82288 -3.35175,23.30435 -4.54271,3.64308 -12.73459,4.52674 -17.842,1.92462 z m 1.29401,-13.77676 c 0.72944,-2.29829 -0.0778,-3.84859 -2.00406,-3.84859 -1.68681,0 -2.7377,2.30912 -1.96605,4.32 0.79332,2.06738 3.25718,1.77482 3.97011,-0.47141 z m 8.62599,-4.44901 c 2.30975,-2.30975 1.53567,-7.23868 -1.36247,-8.67556 -2.84686,-1.41145 -5.44938,-0.26952 -6.96454,3.05589 -2.28159,5.00755 4.41786,9.52882 8.32701,5.61967 z"
     style="display:inline;fill:#999997;stroke-width:0.95999998"
     sodipodi:nodetypes="scscscssscssssscsssssscsscssccssscssscccsccscccsssccsccscsccsscccsccscss"
     inkscape:label="light grey" />
  <text
     inkscape:label="Letter Z"
     transform="scale(1.0488595,0.95341656)"
     id="text3961"
     y="316.68359"
     x="179.14619"
     style="font-style:normal;font-weight:normal;font-size:67.10434723px;line-height:1.25;font-family:sans-serif;letter-spacing:0px;word-spacing:0px;display:none;fill:#ffffff;fill-opacity:1;stroke:none;stroke-width:1.67760885"
     xml:space="preserve"><tspan
       style="font-style:normal;font-variant:normal;font-weight:normal;font-stretch:normal;font-size:161.04953003px;font-family:Herculanum;-inkscape-font-specification:'Herculanum, Normal';font-variant-ligatures:normal;font-variant-caps:normal;font-variant-numeric:normal;font-feature-settings:normal;text-align:start;writing-mode:lr-tb;text-anchor:start;stroke-width:1.67760885"
       y="316.68359"
       x="179.14619"
       id="tspan3959"
       sodipodi:role="line">Z</tspan></text>
  <path
     style="display:inline;fill:#625f59;stroke-width:0.95999998"
     d="M 237.78711 58.585938 C 219.77487 58.435559 201.65431 61.351297 188.30078 67.189453 C 174.43119 73.253233 160.32495 85.453106 152.73633 97.945312 C 144.08817 112.18172 138.53833 131.59042 136.54492 154.56641 L 135.45117 167.17578 L 117.11133 167.65234 C 92.675535 168.28619 83.657922 170.81343 74.671875 179.54688 C 60.024893 193.7821 59.127599 226.80844 72.96875 242.20312 C 81.964767 252.20887 93.834117 255.6757 119.17383 255.70117 L 135.73438 255.71875 L 135.73438 308.38672 C 135.73438 339.11784 136.1316 363.20939 136.6875 366.22656 C 138.21178 374.4997 143.77736 384.43912 150.5 390.89453 C 156.83173 396.97458 161.87708 399.98548 170.29492 402.70703 C 176.28217 404.64275 188.54608 405.02144 195.25391 403.47656 C 197.62991 402.92934 202.16598 401.20466 205.33398 399.64453 C 220.7312 392.06194 230.38637 377.59133 232.44141 359.01953 C 232.9327 354.57965 233.68308 352.08189 234.72266 351.42773 C 237.48378 349.69026 239.24482 351.33488 239.85742 356.22266 C 241.79621 371.69168 244.85065 379.36843 252.54688 388.11719 C 275.12665 413.78493 316.37052 408.63833 331.75195 378.23438 C 337.06799 367.72636 337.29821 364.79453 337.31641 307.9082 L 337.33398 255.93945 L 356.77344 255.48633 C 373.24156 255.10266 377.19109 254.71733 382.60547 252.96484 C 399.96237 247.3469 408.27729 235.53904 409.11523 215.31641 C 409.60157 203.57904 408.47596 196.97866 404.61914 188.93555 C 400.31598 179.96162 393.78337 174.70967 381.89062 170.66602 C 375.02623 168.33204 372.49198 168.02675 355.57422 167.5 L 336.85352 166.91797 L 336.22461 156.77344 C 333.23201 108.51627 312.76752 76.477349 277.32812 64.568359 C 265.74042 60.674445 251.79663 58.702898 237.78711 58.585938 z M 194.85742 75.3125 C 195.97274 75.355361 196.21484 75.753819 196.21484 76.658203 C 196.21484 78.724764 190.264 84.353395 185.45312 86.837891 C 178.6236 90.364888 175.08866 88.317758 178.86133 83.019531 C 181.65645 79.09415 186.49251 76.309232 191.76953 75.585938 C 193.20425 75.389288 194.18823 75.286783 194.85742 75.3125 z M 172.26953 90.59375 C 173.37081 90.657076 174.13477 91.416803 174.13477 92.849609 C 174.13477 94.087775 173.34448 95.815621 172.37891 96.689453 C 171.41333 97.563292 169.68548 98.277344 168.53906 98.277344 C 165.83825 98.277344 165.74914 95.143435 168.375 92.517578 C 169.72989 91.162681 171.16825 90.530424 172.26953 90.59375 z M 237.32812 104.88477 C 258.21554 104.91768 279.13795 105.44888 282.97852 106.44922 C 290.2659 108.34735 296.34869 111.95915 302.4375 118.00781 C 321.06528 136.51278 317.98105 166.5807 296.33203 177.54297 L 290.77344 180.35742 L 237.49414 180.54883 C 195.55322 180.69965 183.36071 180.47182 180.20508 179.47266 C 167.80257 175.5457 159.35982 164.84832 158.11133 151.47852 C 156.2757 131.82125 171.22245 111.83496 191.89453 106.30469 C 195.58942 105.31622 216.44071 104.85185 237.32812 104.88477 z M 190.89062 128.11719 C 183.62162 128.13908 177.76759 132.47047 175.61914 139.70508 C 173.00591 148.50478 176.90047 157.45036 184.69531 160.55859 C 191.58486 163.30583 200.9625 159.96966 204.59375 153.47852 C 210.32134 143.24001 204.82988 130.12046 194.08594 128.37695 C 192.99638 128.20014 191.92905 128.11406 190.89062 128.11719 z M 282.23633 128.18555 C 281.6632 128.18795 281.08081 128.21846 280.48828 128.27539 C 270.35722 129.24886 263.3168 139.59934 266.21289 149.26562 C 267.67258 154.13761 272.39863 159.47921 276.23242 160.58984 C 288.32689 164.09356 298.61221 155.80804 297.75586 143.25195 C 297.13513 134.15067 290.83322 128.14945 282.23633 128.18555 z M 280.69336 131.87891 C 281.74936 131.87891 283.4772 132.74283 284.5332 133.79883 C 285.5892 134.85483 286.45312 136.58267 286.45312 137.63867 C 286.45313 138.69467 285.5892 140.42252 284.5332 141.47852 C 280.90679 145.10493 274.93359 142.81759 274.93359 137.80273 C 274.93359 135.19016 278.15331 131.87891 280.69336 131.87891 z M 190 132.0957 C 193.92696 132.37577 196.54328 136.96933 193.89844 141.00586 C 192.81292 142.66258 191.45736 143.39844 189.49414 143.39844 C 183.71292 143.39844 181.86844 135.04365 187.12109 132.65039 C 188.11848 132.19595 189.09378 132.03107 190 132.0957 z M 182.32227 142.54883 C 183.0941 142.5702 183.94367 142.97559 184.69336 143.87891 C 185.64682 145.02776 185.64682 145.60896 184.69336 146.75781 C 184.03605 147.54981 182.8904 148.19727 182.14648 148.19727 C 181.40256 148.19727 180.54611 147.54981 180.24219 146.75781 C 179.30328 144.31104 180.62423 142.50181 182.32227 142.54883 z M 273.67383 142.60352 C 274.92452 142.6134 275.97831 143.73702 275.7207 145.54297 C 275.36179 148.05899 272.83931 148.86183 271.26172 146.96094 C 270.4336 145.96313 270.47982 145.21119 271.45117 143.88281 C 272.10229 142.99236 272.92341 142.59759 273.67383 142.60352 z M 93.804688 177.00195 C 97.87404 176.99656 96.770132 179.75976 91.216797 183.47852 C 84.61019 187.90259 79.176992 187.63521 82.875 183.06836 C 85.380149 179.97463 90.729584 177.00595 93.804688 177.00195 z M 79.648438 190.36133 C 80.41591 190.40826 81.013672 190.94336 81.013672 192.09961 C 81.013672 193.08673 80.494928 194.41327 79.861328 195.04688 C 77.781826 197.12638 76.064865 196.38974 76.390625 193.55859 C 76.620711 191.55893 78.369316 190.28312 79.648438 190.36133 z M 214.25 209.49609 C 215.1509 209.49609 216.10758 209.69992 217.12109 210.10938 C 218.24722 210.51883 219.37388 210.98036 220.5 211.49219 L 223.87891 213.02734 C 225.11764 213.4368 226.35697 213.69256 227.5957 213.79492 L 239.08203 214.7168 C 243.02346 214.92153 246.62682 215.12535 249.89258 215.33008 C 253.27094 215.43244 256.19831 215.53631 258.67578 215.63867 C 261.15325 215.74104 262.84324 215.79102 263.74414 215.79102 C 264.64504 215.79102 265.54441 215.58719 266.44531 215.17773 C 267.45882 214.66591 268.47282 214.41016 269.48633 214.41016 C 270.04939 214.41016 270.72539 215.17742 271.51367 216.71289 C 272.30196 218.146 272.69531 219.57861 272.69531 221.01172 C 272.69531 221.31881 272.52729 221.67648 272.18945 222.08594 C 271.96423 222.4954 271.4009 223.16075 270.5 224.08203 C 269.71171 224.90095 268.5297 226.07976 266.95312 227.61523 C 265.48917 229.04834 263.46117 230.94053 260.87109 233.29492 L 212.05469 278.43945 C 210.14028 280.17966 208.8456 281.40649 208.16992 282.12305 C 207.60686 282.73724 207.32422 283.35261 207.32422 283.9668 C 207.32422 284.88808 208.6189 286.06494 211.20898 287.49805 C 213.91168 288.93115 217.40433 290.4157 221.68359 291.95117 C 226.07547 293.48664 230.97352 295.02117 236.37891 296.55664 C 241.89691 298.09211 247.41559 299.47475 252.93359 300.70312 C 258.5642 301.9315 263.96828 302.90454 269.14844 303.62109 C 274.3286 304.44001 278.83329 304.84961 282.66211 304.84961 C 287.39182 304.84961 290.99519 304.08039 293.47266 302.54492 C 294.37355 302.13546 295.33219 301.72587 296.3457 301.31641 C 297.35921 300.80458 298.20323 300.54883 298.87891 300.54883 C 299.44197 300.54883 300.17332 300.7546 301.07422 301.16406 C 301.97512 301.57352 302.42578 302.0331 302.42578 302.54492 C 302.42578 302.85202 301.91976 303.67121 300.90625 305.00195 C 300.00535 306.3327 298.87869 307.71533 297.52734 309.14844 C 296.176 310.58155 294.824 311.86031 293.47266 312.98633 C 292.12131 314.11234 291.05196 314.67578 290.26367 314.67578 C 289.70061 314.67578 287.89795 314.47196 284.85742 314.0625 C 281.81689 313.75541 277.93284 313.24194 273.20312 312.52539 C 268.58602 311.80884 263.34998 310.93966 257.49414 309.91602 C 251.75092 308.99473 245.89423 307.91978 239.92578 306.69141 C 233.95733 305.46303 228.15795 304.08039 222.52734 302.54492 C 216.89673 301.00945 211.88602 299.42299 207.49414 297.78516 C 203.10226 296.04495 199.55426 294.25468 196.85156 292.41211 C 194.14887 290.56954 192.79688 288.62347 192.79688 286.57617 C 192.79688 284.01705 193.30485 281.97102 194.31836 280.43555 C 195.33187 278.90007 197.24524 277.05591 200.06055 274.90625 C 201.74973 273.67787 204.05841 271.83566 206.98633 269.37891 C 210.02686 266.81978 213.34953 263.95456 216.95312 260.78125 C 220.66933 257.50557 224.49803 254.07496 228.43945 250.49219 C 232.49349 246.90942 236.26683 243.48075 239.75781 240.20508 C 243.3614 236.82704 246.56946 233.80797 249.38477 231.14648 C 252.31268 228.38263 254.5087 226.23274 255.97266 224.69727 C 252.25645 224.5949 248.31509 224.44106 244.14844 224.23633 C 239.98179 223.92923 235.92776 223.67348 231.98633 223.46875 C 228.0449 223.16166 224.32887 222.9059 220.83789 222.70117 C 217.34691 222.39408 214.36223 222.1883 211.88477 222.08594 C 210.42081 221.98357 209.35145 221.47206 208.67578 220.55078 C 208.11272 219.6295 207.83203 218.65841 207.83203 217.63477 C 207.83203 216.81585 208.00005 215.94472 208.33789 215.02344 C 208.67573 214.10215 209.12639 213.23298 209.68945 212.41406 C 210.25251 211.59514 210.92851 210.92979 211.7168 210.41797 C 212.50508 209.80378 213.3491 209.49609 214.25 209.49609 z "
     id="path3785" />
  <path
     style="display:inline;fill:#303130;stroke-width:0.95999998"
     d="m 235.41016,58.976562 c -7.62201,-0.01338 -15.02932,0.297708 -19.51563,0.935547 -32.83011,4.66761 -55.00317,20.129304 -67.62109,47.156251 -6.54271,14.01418 -10.22953,30.11575 -12.08008,52.75 l -0.59766,7.30078 -17.92968,0.57617 C 92.804574,168.49438 84.78041,170.6823 75.570312,179.17188 66.499929,187.53266 63.303384,197.27664 64,214.4375 c 0.507426,12.5002 1.283018,15.62372 5.716797,23.01953 4.1743,6.96299 10.928174,11.93981 20.417969,15.04297 6.927125,2.26516 9.537324,2.55674 26.638674,2.98633 l 18.96094,0.47656 v 52.52344 c 0,48.49008 0.13951,53.07317 1.82617,59.66797 4.38229,17.13457 17.2586,30.22324 34.35742,34.92382 6.46877,1.77833 18.14605,1.7338 24.36133,-0.0918 12.83281,-3.76935 24.58794,-13.29312 30.37109,-24.60742 3.11778,-6.0997 4.43301,-10.96391 5.7793,-21.38086 0.70232,-5.43414 0.90073,-5.77721 3.51953,-6.07617 3.45479,-0.39437 4.39136,1.00585 4.41016,6.5957 0.0355,10.51594 5.80839,23.83684 13.93554,32.16015 6.20397,6.35368 11.24402,9.47851 20.07031,12.44141 24.73291,8.30256 52.3568,-5.91289 60.08008,-30.91797 1.8359,-5.94383 1.92969,-8.87366 1.92969,-60.73437 v -54.48828 l 19.43945,-0.4961 c 17.61443,-0.45021 20.16036,-0.73369 27.11914,-3.01562 17.29948,-5.67284 25.11993,-16.78608 26.16993,-37.18946 0.65588,-12.74499 -1.43144,-21.90639 -6.79883,-29.83984 -8.95164,-13.23128 -23.1515,-18.01295 -53.54688,-18.03125 l -12.09375,-0.008 -0.58203,-9.83985 c -1.10365,-18.70277 -4.94362,-35.42332 -11.375,-49.52929 -12.41033,-27.219621 -36.51316,-44.12795 -68.49219,-48.046878 -5.34567,-0.655093 -13.18268,-0.992483 -20.80468,-1.00586 z m -42.40235,16.076172 c 2.29577,0.02176 4.16602,0.501796 4.16602,1.425782 0,1.688041 -7.44729,8.751596 -11.23242,10.654296 -1.68978,0.849415 -4.38978,1.544922 -6,1.544922 -2.44474,0 -2.92774,-0.376282 -2.92774,-2.287109 0,-2.214673 5.22145,-7.853057 9.27539,-10.015625 1.70187,-0.907857 4.42298,-1.344023 6.71875,-1.322266 z m -20.73242,15.316407 c 0.35495,0.02735 0.69404,0.118412 1.00195,0.283203 2.20855,1.181974 2.2956,2.674861 0.32227,5.492187 -0.96872,1.383039 -2.48872,2.132813 -4.32031,2.132813 -2.35141,0 -2.82618,-0.390811 -2.82618,-2.330078 10e-6,-2.826271 3.33765,-5.769601 5.82227,-5.578125 z m 42.09766,14.703129 c 6.21035,0.003 14.27519,0.052 24.90429,0.12109 l 43.81641,0.28516 6.24023,2.95898 c 21.45922,10.17613 31.53197,34.62631 22.13086,53.72266 -5.09911,10.35779 -13.24189,16.44523 -24.97265,18.66992 -6.04452,1.14635 -95.22059,1.12258 -102.05664,-0.0274 -27.32221,-4.59598 -35.7163,-39.03807 -14.88282,-61.0664 5.97506,-6.31774 11.91081,-10.15097 19.80469,-12.78906 4.44101,-1.48416 6.38457,-1.88416 25.01563,-1.875 z m 67.71093,22.96484 c -2.97618,0 -8.86235,2.39602 -11.29296,4.5957 -5.10049,4.61587 -6.41341,14.63922 -2.70313,20.64258 2.61322,4.22828 4.02849,5.38835 8.51758,6.99023 4.5041,1.60723 5.86144,1.64574 9.94531,0.28321 4.35242,-1.45212 9.21334,-6.16608 10.55664,-10.23633 3.42769,-10.38601 -4.59063,-22.27539 -15.02344,-22.27539 z m -90.85351,0.31445 c -3.02246,-0.0541 -6.20802,0.81064 -9.2832,2.84571 -4.48132,2.96559 -6.85352,7.66541 -6.85352,13.58398 0,7.65559 4.33156,13.7068 11.4375,15.98047 6.65123,2.12817 15.1144,-1.70477 18.33789,-8.30664 5.86589,-12.01369 -2.84417,-23.91012 -13.63867,-24.10352 z m -1.57031,3.52735 c 4.91644,0 7.4805,6.63316 3.83789,9.92968 -2.31857,2.09827 -6.19754,2.01992 -8.17578,-0.16601 -3.44424,-3.80584 -0.79715,-9.76367 4.33789,-9.76367 z m 91.23632,0.17968 c 1.76862,0.11943 3.51278,1.04759 4.56641,2.93946 1.32025,2.37063 1.32192,2.90865 0.002,5.27929 -2.9115,5.22899 -10.53125,3.19842 -10.53125,-2.80664 0,-3.56557 3.0152,-5.61115 5.96289,-5.41211 z m -98.60156,10.37891 c 2.36556,0 3.63636,2.00033 2.7461,4.32031 -0.30393,0.792 -1.53909,1.43946 -2.7461,1.43946 -2.36557,0 -3.6383,-1.99839 -2.74804,-4.31836 0.30393,-0.792 1.54102,-1.44141 2.74804,-1.44141 z m 90.57227,0 c 2.38036,0 4.18193,2.21346 3.41992,4.19922 -0.75287,1.96196 -5.06578,2.05174 -5.80664,0.12109 -0.8403,-2.18978 0.33741,-4.32031 2.38672,-4.32031 z M 93.453125,177.00977 c 1.677409,0.0107 2.921875,0.47526 2.921875,1.39062 0,1.65334 -3.330782,4.97648 -6.720703,6.70508 -1.32,0.67309 -3.596953,1.51021 -5.060547,1.86133 -5.850227,1.40328 -3.312415,-5.16204 3.332031,-8.61914 1.738035,-0.90431 3.849935,-1.34858 5.527344,-1.33789 z m -14.361328,12.6875 c 0.105674,-0.007 0.206994,0.006 0.302734,0.0371 1.600485,0.52673 1.992969,4.37703 0.615235,6.0371 -1.496973,1.8037 -3.708417,1.77326 -4.41211,-0.0605 -0.653886,-1.704 1.909024,-5.91008 3.494141,-6.01367 z M 214.25,209.49609 c 0.9009,0 1.85758,0.20383 2.87109,0.61329 1.12613,0.40945 2.25279,0.87098 3.37891,1.38281 l 3.37891,1.53515 c 1.23873,0.40946 2.47806,0.66522 3.71679,0.76758 l 11.48633,0.92188 c 3.94143,0.20473 7.54479,0.40855 10.81055,0.61328 3.37836,0.10236 6.30573,0.20623 8.7832,0.30859 2.47747,0.10237 4.16746,0.15235 5.06836,0.15235 0.9009,0 1.80027,-0.20383 2.70117,-0.61329 1.01351,-0.51182 2.02751,-0.76757 3.04102,-0.76757 0.56306,0 1.23906,0.76726 2.02734,2.30273 0.78829,1.43311 1.18164,2.86572 1.18164,4.29883 0,0.30709 -0.16802,0.66476 -0.50586,1.07422 -0.22522,0.40946 -0.78855,1.07481 -1.68945,1.99609 -0.78829,0.81892 -1.9703,1.99773 -3.54688,3.5332 -1.46395,1.43311 -3.49195,3.3253 -6.08203,5.67969 l -48.8164,45.14453 c -1.91441,1.74021 -3.20909,2.96704 -3.88477,3.6836 -0.56306,0.61419 -0.8457,1.22956 -0.8457,1.84375 0,0.92128 1.29468,2.09814 3.88476,3.53125 2.7027,1.4331 6.19535,2.91765 10.47461,4.45312 4.39188,1.53547 9.28993,3.07 14.69532,4.60547 5.518,1.53547 11.03668,2.91811 16.55468,4.14648 5.63061,1.22838 11.03469,2.20142 16.21485,2.91797 5.18016,0.81892 9.68485,1.22852 13.51367,1.22852 4.72971,0 8.33308,-0.76922 10.81055,-2.30469 0.90089,-0.40946 1.85953,-0.81905 2.87304,-1.22851 1.01351,-0.51183 1.85753,-0.76758 2.53321,-0.76758 0.56306,0 1.29441,0.20577 2.19531,0.61523 0.9009,0.40946 1.35156,0.86904 1.35156,1.38086 0,0.3071 -0.50602,1.12629 -1.51953,2.45703 -0.9009,1.33075 -2.02756,2.71338 -3.37891,4.14649 -1.35134,1.43311 -2.70334,2.71187 -4.05468,3.83789 -1.35135,1.12601 -2.4207,1.68945 -3.20899,1.68945 -0.56306,0 -2.36572,-0.20382 -5.40625,-0.61328 -3.04053,-0.30709 -6.92458,-0.82056 -11.6543,-1.53711 -4.6171,-0.71655 -9.85314,-1.58573 -15.70898,-2.60937 -5.74322,-0.92129 -11.59991,-1.99624 -17.56836,-3.22461 -5.96845,-1.22838 -11.76783,-2.61102 -17.39844,-4.14649 -5.63061,-1.53547 -10.64132,-3.12193 -15.0332,-4.75976 -4.39188,-1.74021 -7.93988,-3.53048 -10.64258,-5.37305 -2.70269,-1.84257 -4.05468,-3.78864 -4.05468,-5.83594 0,-2.55912 0.50797,-4.60515 1.52148,-6.14062 1.01351,-1.53548 2.92688,-3.37964 5.74219,-5.5293 1.68918,-1.22838 3.99786,-3.07059 6.92578,-5.52734 3.04053,-2.55913 6.3632,-5.42435 9.96679,-8.59766 3.71621,-3.27568 7.54491,-6.70629 11.48633,-10.28906 4.05404,-3.58277 7.82738,-7.01144 11.31836,-10.28711 3.60359,-3.37804 6.81165,-6.39711 9.62696,-9.0586 2.92791,-2.76385 5.12393,-4.91374 6.58789,-6.44921 -3.71621,-0.10237 -7.65757,-0.25621 -11.82422,-0.46094 -4.16665,-0.3071 -8.22068,-0.56285 -12.16211,-0.76758 -3.94143,-0.30709 -7.65746,-0.56285 -11.14844,-0.76758 -3.49098,-0.30709 -6.47566,-0.51287 -8.95312,-0.61523 -1.46396,-0.10237 -2.53332,-0.61388 -3.20899,-1.53516 -0.56306,-0.92128 -0.84375,-1.89237 -0.84375,-2.91601 0,-0.81892 0.16802,-1.69005 0.50586,-2.61133 0.33784,-0.92129 0.7885,-1.79046 1.35156,-2.60938 0.56306,-0.81892 1.23906,-1.48427 2.02735,-1.99609 0.78828,-0.61419 1.6323,-0.92188 2.5332,-0.92188 z"
     id="path3783"
     inkscape:connector-curvature="0" />
  <path
     style="display:inline;fill:#000000;stroke-width:0.95999998"
     d="m 235.90234,59.003906 c -13.94261,0.09849 -28.1887,1.941378 -38.12695,5.185547 -37.69888,12.306154 -58.01606,43.353647 -60.94141,93.128907 l -0.61914,10.56055 -20.16015,0.59961 c -20.833143,0.62145 -24.504653,1.24471 -33.037112,5.59765 -12.578451,6.41704 -19.255859,19.57832 -19.255859,37.96094 0,14.51014 3.654446,24.3909 11.794922,31.89453 9.342909,8.61199 14.832521,10.10733 39.537109,10.76758 l 20.16016,0.53906 0.49218,54.71875 c 0.48185,53.51908 0.54147,54.86164 2.65039,61.10547 1.18592,3.51118 3.85869,8.93285 5.93946,12.04883 5.39873,8.08467 15.88454,16.64635 18.44726,15.0625 0.62804,-0.38816 0.8238,-0.24681 0.46485,0.33398 -0.69815,1.12963 5.4363,3.85092 11.36523,5.04102 6.38007,1.28065 18.89521,0.27401 25.08594,-2.01758 18.84062,-6.97416 32.03516,-24.94285 32.03516,-43.62695 -10e-6,-6.21733 2.42509,-9.05845 6.24414,-7.31836 1.92607,0.87757 2.40244,1.80059 2.43164,4.71094 0.18674,18.64787 11.08889,36.19281 27.30859,43.94531 12.01823,5.74432 24.51725,6.51627 36.83789,2.27734 13.10721,-4.50953 23.44431,-14.72358 29.27148,-28.92578 2.0127,-4.90542 2.07925,-6.48181 2.54688,-61.19531 l 0.47852,-56.16016 17.28125,-0.2207 c 19.18037,-0.24415 25.74466,-1.14617 33.59765,-4.61914 15.72979,-6.95646 23.59636,-24.40802 20.79297,-46.125 -2.23082,-17.28164 -9.86316,-27.19385 -25.2168,-32.74414 -6.60167,-2.38649 -8.42791,-2.59074 -26.29492,-2.95313 -10.56,-0.21418 -19.50043,-0.67449 -19.86914,-1.02344 -0.36872,-0.34896 -0.93383,-4.7379 -1.25586,-9.7539 C 334.18427,131.25008 326.3485,106.458 315.00391,91.722656 300.99621,73.528249 281.45158,63.310341 254.29492,59.982422 248.5153,59.274157 242.2399,58.959138 235.90234,59.003906 Z m -43.0332,15.63086 c 2.19928,-0.03088 3.85896,0.567939 4.12109,1.873046 0.45101,2.245393 -6.48087,8.921116 -11.74609,11.3125 -4.76269,2.163149 -6.6717,2.255452 -8.21289,0.398438 -1.67007,-2.012314 1.3432,-6.879364 6.50586,-10.507812 2.78534,-1.957615 6.50439,-3.036471 9.33203,-3.076172 z m -20.95703,15.111328 c 3.42553,0.0643 4.34571,4.488268 1.26172,7.572265 -2.2704,2.2704 -5.06136,2.478205 -6.70313,0.5 -1.64539,-1.982582 1.6491,-7.579438 4.72266,-8.023437 0.25019,-0.03614 0.49038,-0.05312 0.71875,-0.04883 z m 64.82617,14.507816 c 18.78105,0.005 37.69222,0.2893 41.78516,0.85156 24.23319,3.32901 41.97788,29.35401 35.41211,51.93945 -3.36161,11.56351 -13.75418,21.35396 -25.08203,23.62891 -6.57728,1.32091 -99.22915,1.41131 -105.86524,0.10351 -9.99686,-1.97012 -19.63628,-10.16843 -23.22266,-19.7539 -3.78892,-10.12681 -1.96932,-24.9912 4.26758,-34.8711 6.44362,-10.20735 20.02895,-19.23553 31.70118,-21.0664 3.57276,-0.56039 22.22285,-0.83657 41.0039,-0.83203 z m -45.11719,24.13476 c -1.38084,-0.0499 -2.79146,0.11944 -4.20507,0.54297 -15.80035,4.73389 -16.56146,25.76889 -1.13282,31.31641 2.03005,0.72995 4.98632,1.07419 6.57032,0.76367 4.33999,-0.85082 8.31739,-3.14499 7.56445,-4.36328 -0.3689,-0.59689 -0.22769,-0.79963 0.32031,-0.46094 1.32008,0.81586 3.61314,-1.95317 5.0918,-6.14648 3.59303,-10.18947 -4.54305,-21.30287 -14.20899,-21.65235 z m 90.15625,0.15235 c -3.50006,0.0698 -7.05183,1.39644 -10.04882,4.17187 -3.88138,3.59443 -5.4336,7.05684 -5.4336,12.11523 0,7.88046 4.72477,14.16466 11.97852,15.92774 11.22757,2.72897 21.85046,-8.69192 18.75976,-20.16992 -2.0803,-7.72567 -8.57392,-12.17824 -15.25586,-12.04492 z m 1.19336,2.94531 c 1.30399,0.0349 2.10724,0.3616 1.875,0.96679 -0.24286,0.63291 0.018,1.43659 0.58203,1.78516 2.01475,1.24519 1.12348,6.06416 -1.5039,8.13086 -2.81608,2.21513 -2.83575,2.21828 -5.88281,0.99414 -4.56638,-1.83456 -4.53664,-9.63829 0.043,-11.0918 1.77663,-0.56388 3.58274,-0.82004 4.88672,-0.78515 z m -93.99218,0.39258 c 4.42025,0 6.39477,2.18977 6.12304,6.79492 -0.12047,2.0418 -0.40965,3.52199 -0.64062,3.29101 -0.23099,-0.23097 -1.32165,0.21297 -2.42578,0.98633 -1.10412,0.77336 -2.55986,1.40625 -3.23438,1.40625 -2.0832,0 -5.0664,-3.71101 -5.0664,-6.30273 0,-4.22481 1.65657,-6.17578 5.24414,-6.17578 z m -7.02149,10.08789 c 2.62477,-0.0444 4.8869,3.69708 2.54492,6.03906 -0.6336,0.6336 -1.62623,1.15234 -2.20703,1.15234 -2.89852,0 -4.44584,-4.65031 -2.16015,-6.49218 0.59219,-0.47721 1.21655,-0.68898 1.82226,-0.69922 z m 91.53711,0.95117 c 3.17294,0 4.36039,2.43697 2.36133,4.8457 -0.63625,0.76663 -1.69863,1.39453 -2.36133,1.39453 -1.77817,0 -3.56671,-2.53448 -3.18555,-4.51367 0.23106,-1.19983 1.20194,-1.72656 3.18555,-1.72656 z M 94.09375,176.8418 c 1.303486,0.0475 2.32724,0.41497 2.804688,1.1875 0.859908,1.39136 -3.072764,5.4588 -7.445313,7.70117 -6.235198,3.1976 -9.990931,1.71972 -7.492187,-2.94922 1.788859,-3.34251 8.222354,-6.08187 12.132812,-5.93945 z m -15.068359,12.63672 c 3.041151,0 3.485383,4.98267 0.61914,6.94531 -2.074221,1.4203 -4.390625,0.76211 -4.390625,-1.24805 0,-3.01141 1.77808,-5.69726 3.771485,-5.69726 z M 214.25,209.49609 c 0.9009,0 1.85758,0.20383 2.87109,0.61329 1.12613,0.40945 2.25279,0.87098 3.37891,1.38281 l 3.37891,1.53515 c 1.23873,0.40946 2.47806,0.66522 3.71679,0.76758 l 11.48633,0.92188 c 3.94143,0.20473 7.54479,0.40855 10.81055,0.61328 3.37836,0.10236 6.30573,0.20623 8.7832,0.30859 2.47747,0.10237 4.16746,0.15235 5.06836,0.15235 0.9009,0 1.80027,-0.20383 2.70117,-0.61329 1.01351,-0.51182 2.02751,-0.76757 3.04102,-0.76757 0.56306,0 1.23906,0.76726 2.02734,2.30273 0.78829,1.43311 1.18164,2.86572 1.18164,4.29883 0,0.30709 -0.16802,0.66476 -0.50586,1.07422 -0.22522,0.40946 -0.78855,1.07481 -1.68945,1.99609 -0.78829,0.81892 -1.9703,1.99773 -3.54688,3.5332 -1.46395,1.43311 -3.49195,3.3253 -6.08203,5.67969 l -48.8164,45.14453 c -1.91441,1.74021 -3.20909,2.96704 -3.88477,3.6836 -0.56306,0.61419 -0.8457,1.22956 -0.8457,1.84375 0,0.92128 1.29468,2.09814 3.88476,3.53125 2.7027,1.4331 6.19535,2.91765 10.47461,4.45312 4.39188,1.53547 9.28993,3.07 14.69532,4.60547 5.518,1.53547 11.03668,2.91811 16.55468,4.14648 5.63061,1.22838 11.03469,2.20142 16.21485,2.91797 5.18016,0.81892 9.68485,1.22852 13.51367,1.22852 4.72971,0 8.33308,-0.76922 10.81055,-2.30469 0.90089,-0.40946 1.85953,-0.81905 2.87304,-1.22851 1.01351,-0.51183 1.85753,-0.76758 2.53321,-0.76758 0.56306,0 1.29441,0.20577 2.19531,0.61523 0.9009,0.40946 1.35156,0.86904 1.35156,1.38086 0,0.3071 -0.50602,1.12629 -1.51953,2.45703 -0.9009,1.33075 -2.02756,2.71338 -3.37891,4.14649 -1.35134,1.43311 -2.70334,2.71187 -4.05468,3.83789 -1.35135,1.12601 -2.4207,1.68945 -3.20899,1.68945 -0.56306,0 -2.36572,-0.20382 -5.40625,-0.61328 -3.04053,-0.30709 -6.92458,-0.82056 -11.6543,-1.53711 -4.6171,-0.71655 -9.85314,-1.58573 -15.70898,-2.60937 -5.74322,-0.92129 -11.59991,-1.99624 -17.56836,-3.22461 -5.96845,-1.22838 -11.76783,-2.61102 -17.39844,-4.14649 -5.63061,-1.53547 -10.64132,-3.12193 -15.0332,-4.75976 -4.39188,-1.74021 -7.93988,-3.53048 -10.64258,-5.37305 -2.70269,-1.84257 -4.05468,-3.78864 -4.05468,-5.83594 0,-2.55912 0.50797,-4.60515 1.52148,-6.14062 1.01351,-1.53548 2.92688,-3.37964 5.74219,-5.5293 1.68918,-1.22838 3.99786,-3.07059 6.92578,-5.52734 3.04053,-2.55913 6.3632,-5.42435 9.96679,-8.59766 3.71621,-3.27568 7.54491,-6.70629 11.48633,-10.28906 4.05404,-3.58277 7.82738,-7.01144 11.31836,-10.28711 3.60359,-3.37804 6.81165,-6.39711 9.62696,-9.0586 2.92791,-2.76385 5.12393,-4.91374 6.58789,-6.44921 -3.71621,-0.10237 -7.65757,-0.25621 -11.82422,-0.46094 -4.16665,-0.3071 -8.22068,-0.56285 -12.16211,-0.76758 -3.94143,-0.30709 -7.65746,-0.56285 -11.14844,-0.76758 -3.49098,-0.30709 -6.47566,-0.51287 -8.95312,-0.61523 -1.46396,-0.10237 -2.53332,-0.61388 -3.20899,-1.53516 -0.56306,-0.92128 -0.84375,-1.89237 -0.84375,-2.91601 0,-0.81892 0.16802,-1.69005 0.50586,-2.61133 0.33784,-0.92129 0.7885,-1.79046 1.35156,-2.60938 0.56306,-0.81892 1.23906,-1.48427 2.02735,-1.99609 0.78828,-0.61419 1.6323,-0.92188 2.5332,-0.92188 z m 183.75586,17.42188 c 2.31627,0 2.29847,3.98698 -0.0273,6.0918 -2.6496,2.39786 -4.00391,1.80841 -4.00391,-1.74024 0,-2.50181 1.7134,-4.35156 4.03125,-4.35156 z m -6.44922,9.59961 c 4.40186,0 1.4056,6.14132 -4.49414,9.21094 -3.31059,1.7225 -8.44922,1.7777 -8.44922,0.0898 0,-2.67461 9.22106,-9.30078 12.94336,-9.30078 z m -68.84375,135.36133 c 2.78641,0 3.491,1.53835 2.16797,4.73242 -1.33878,3.23211 -5.01699,5.25255 -6.62891,3.64062 -2.77405,-2.77404 0.20902,-8.37304 4.46094,-8.37304 z m -105.2793,0.10351 c 0.18865,0.009 0.37659,0.0306 0.5625,0.0664 2.48412,0.4784 2.59501,2.93125 0.26563,5.89258 -1.20398,1.53061 -2.97274,2.57617 -4.35742,2.57617 -1.94524,0 -2.33008,-0.47181 -2.33008,-2.85742 0,-2.97345 3.02968,-5.80726 5.85937,-5.67774 z M 206.58594,381.75 c 0.74798,0.0501 1.26346,0.39236 1.92187,1.05078 1.40875,1.40874 1.37583,1.75181 -0.40039,4.13086 -1.06555,1.42719 -3.51245,3.86965 -5.4375,5.42774 -4.53704,3.6721 -13.17578,4.91971 -13.17578,1.90234 0,-3.37155 7.49625,-9.79808 13.7793,-11.8125 1.5849,-0.50814 2.56451,-0.74933 3.3125,-0.69922 z m 104.97265,0.084 c 3.19444,-0.14272 4.25058,2.01249 2.19336,5.15821 -2.41228,3.68866 -3.42534,4.59634 -7.6914,6.88281 -4.82389,2.58544 -10.9668,2.73288 -10.9668,0.26367 0,-3.31578 9.34805,-10.87142 14.9668,-12.09765 0.54078,-0.11802 1.0417,-0.18665 1.49804,-0.20704 z"
     id="path3781"
     inkscape:connector-curvature="0" />
</svg>
